<?xml version="1.0" encoding="iso-8859-1"?>
<!-- Generator: Adobe Illustrator 19.0.0, SVG Export Plug-In . SVG Version: 6.00 Build 0)  -->
<svg xmlns="http://www.w3.org/2000/svg" xmlns:xlink="http://www.w3.org/1999/xlink" version="1.1" id="Capa_1" x="0px" y="0px" viewBox="0 0 511.999 511.999" style="enable-background:new 0 0 511.999 511.999;" xml:space="preserve" width="512px" height="512px">
<g>
	<g>
		<path d="M475.367,196.431c-2.159-4.333-7.774-11.552-21.204-11.552c-0.136,0-0.273,0.001-0.41,0.003    c-18.663,0.191-26.685-1.704-37.472-13.392c-9.713-10.524-16.068-25.027-22.213-39.054c-1.765-4.03-3.591-8.197-5.476-12.224    c-2.248-4.804-4.392-10.142-6.663-15.794c-5.753-14.321-11.703-29.128-21.25-40.643c-8.874-10.701-20.165-12.917-29.237-14.699    c-3.422-0.672-6.653-1.306-9.704-2.31c-6.368-2.095-12.871-4.584-19.161-6.992c-3.287-1.259-6.572-2.516-9.864-3.732    c-2.217-0.819-4.714-0.802-6.936,0.001c-0.404,0.147-1.719,0.505-2.68,0.767c-7.143,1.946-12.05,3.516-15.058,7.456    c-2.901,3.8-3.049,7.613-2.394,10.645c-0.037-0.013-0.075-0.026-0.112-0.04c-10.809-3.925-21.91-10.528-32.646-16.913    c-2.485-1.478-5.008-2.979-7.547-4.458c1.934-5.496,1.871-11.382-0.353-16.974c-3.881-9.755-13.684-16.236-24.973-16.509    c-5.649-0.148-11.144,0.772-16.455,1.651c-2.335,0.386-4.54,0.752-6.606,0.998c-5.189,0.62-10.785,0.979-16.709,1.36    c-13.756,0.885-27.981,1.8-40.74,6.117c-11.739,3.973-16.275,12.344-19.921,19.07c-1.116,2.061-2.171,4.005-3.383,5.767    c-3.558,5.172-8.149,10.09-13.01,15.297c-2.458,2.631-5,5.354-7.394,8.114c-2.294,2.641-4.73,5.323-7.087,7.916    c-8.832,9.719-17.964,19.769-24.168,32.413c-9.822,20.023-14.341,39.577-13.429,58.12c0.271,5.52,4.965,9.761,10.487,9.504    c5.52-0.271,9.775-4.966,9.504-10.487c-0.743-15.118,3.095-31.376,11.408-48.322c4.954-10.097,12.753-18.68,21.01-27.766    c2.432-2.676,4.948-5.443,7.39-8.258c2.158-2.486,4.466-4.958,6.909-7.575c5.147-5.513,10.469-11.214,14.871-17.614    c1.813-2.635,3.234-5.257,4.488-7.572c3.078-5.681,4.613-8.252,8.739-9.648c10.261-3.474,23.147-4.302,35.609-5.104    c5.931-0.382,12.065-0.776,17.796-1.46c2.517-0.3,5.052-0.721,7.504-1.126c4.597-0.762,8.94-1.474,12.702-1.389    c3.957,0.095,6.17,2.161,6.861,3.899c0.949,2.385-0.609,4.628-2.083,6.09c-2.254,2.236-3.312,5.409-2.854,8.551    c0.459,3.141,2.383,5.878,5.182,7.376c5.219,2.793,10.465,5.912,16.019,9.217c11.534,6.862,23.461,13.956,36.047,18.526    c12.447,4.52,23.732,0.785,28.081-9.295c1.284-2.976,1.279-5.739,0.794-8.053c0.287-0.079,0.552-0.151,0.783-0.214    c0.178-0.049,0.354-0.097,0.527-0.144c2.179,0.821,4.356,1.654,6.535,2.488c6.509,2.493,13.24,5.07,20.063,7.313    c4.231,1.392,8.232,2.178,12.102,2.938c8.534,1.676,13.565,2.865,17.685,7.834c7.55,9.105,12.906,22.435,18.084,35.329    c2.378,5.917,4.623,11.508,7.107,16.815c1.78,3.804,3.477,7.675,5.272,11.774c6.807,15.537,13.847,31.605,25.838,44.596    c17.268,18.709,33.268,20.052,52.396,19.83c2.314,0.012,3.286,0.405,3.518,0.533c0.553,1.27-0.082,6.424-3.93,11.409    c-7.446,9.651-16.649,18.908-25.55,27.859c-4.543,4.569-9.242,9.295-13.687,14.05c-1.709,1.828-3.5,3.648-5.395,5.574    c-11.895,12.087-26.699,27.129-22.93,49.779c1.206,7.253,3.852,13.29,6.186,18.616c4.008,9.146,5.972,14.285,3.249,22.133    c-2.273,6.55-6.959,10.529-12.893,15.566c-1.997,1.695-4.063,3.45-6.167,5.412c-9.493,8.857-11.557,19.409-13.217,27.89    c-1.185,6.055-2.208,11.284-5.565,15.38c-0.537,0.594-2.506,1.854-3.808,2.688c-3.47,2.222-7.401,4.74-9.859,8.801    c-2.69,4.445-3.315,9.705-3.921,14.793c-0.336,2.825-0.755,6.341-1.476,7.853c-6.665,13.973-31.774,35.987-47.367,38.521    c-9.632,1.559-14.666-6.283-22.978-25.66c-1.497-3.49-2.911-6.787-4.45-9.926c-3.947-8.057-6.489-16.878-9.18-26.217    c-2.424-8.414-4.932-17.118-8.616-25.572c-1.568-3.599-3.471-7.08-5.31-10.446c-5.6-10.25-8.819-16.946-6.309-23.533    c1.273-3.339,2.905-6.161,4.633-9.148c4.201-7.262,8.964-15.493,6.986-29.273l-0.188-1.314c-1.286-9.02-2.887-20.245-6.684-28.855    c-2.868-6.503-7.589-11.601-11.755-16.099c-4.562-4.927-8.503-9.183-9.134-13.892c-0.275-2.052-0.06-4.326,0.189-6.96    c0.435-4.606,0.977-10.337-1.117-16.805c-3.34-10.319-10.777-19.21-20.406-24.398c-15.555-8.381-31.077-4.559-44.771-1.189    c-6.243,1.538-12.14,2.989-17.603,3.228c-16.777,0.731-32.618-2.708-45.82-9.951c-4.843-2.658-10.928-0.887-13.587,3.959    s-0.887,10.928,3.959,13.587c16.413,9.007,35.89,13.289,56.322,12.401c7.445-0.325,14.596-2.086,21.512-3.788    c11.659-2.87,21.728-5.349,30.494-0.626c5.133,2.765,9.089,7.482,10.856,12.941c0.822,2.537,0.562,5.283,0.233,8.759    c-0.318,3.366-0.679,7.182-0.101,11.497c1.471,10.999,8.28,18.352,14.287,24.837c3.4,3.671,6.61,7.136,8.125,10.573    c2.685,6.091,4.13,16.215,5.184,23.607l0.19,1.33c0.992,6.917-0.959,10.288-4.499,16.408c-1.952,3.374-4.166,7.199-6.011,12.042    c-5.98,15.688,1.464,29.313,7.446,40.259c1.704,3.118,3.313,6.065,4.525,8.845c3.162,7.256,5.382,14.962,7.733,23.118    c2.811,9.757,5.718,19.848,10.439,29.481c1.317,2.688,2.634,5.759,4.029,9.012c6.598,15.381,16.305,38.019,38.696,38.016    c1.869,0,3.833-0.158,5.889-0.492c22.499-3.656,53.018-30.362,62.222-49.661c2.141-4.489,2.749-9.596,3.285-14.103    c0.26-2.188,0.646-5.428,1.09-6.608c0.701-0.634,2.43-1.74,3.609-2.496c2.835-1.814,6.048-3.873,8.468-6.824    c6.579-8.021,8.266-16.646,9.754-24.256c1.537-7.854,2.708-12.88,7.228-17.099c1.76-1.642,3.561-3.171,5.466-4.789    c6.929-5.883,14.784-12.552,18.847-24.262c5.422-15.623,0.294-27.325-3.826-36.728c-2.046-4.667-3.978-9.077-4.775-13.867    c-1.954-11.745,5.289-20.096,17.452-32.455c1.901-1.931,3.867-3.928,5.751-5.944c4.235-4.53,8.618-8.94,13.26-13.607    c9.335-9.389,18.988-19.098,27.202-29.743C476.125,220.354,480.576,206.886,475.367,196.431z" fill="#e0fbfc"/>
	</g>
</g>
<g>
	<g>
		<path d="M61.34,189.358l-0.315-0.531c-2.799-4.767-8.934-6.359-13.698-3.562c-4.766,2.8-6.36,8.933-3.561,13.698l0.396,0.668    c1.875,3.134,5.194,4.873,8.598,4.873c1.747,0,3.518-0.458,5.127-1.421C62.631,200.247,64.176,194.102,61.34,189.358z" fill="#e0fbfc"/>
	</g>
</g>
<g>
	<g>
		<path d="M480.666,361.497l-6.253-23.566c-1.052-3.964-4.414-6.884-8.486-7.37c-4.072-0.477-8.028,1.56-9.983,5.166    c-1.421,2.62-2.74,5.336-4.016,7.963c-2.43,5.002-4.724,9.726-7.489,13.458c-1.483,2-4.573,3.363-8.152,4.941    c-6.63,2.922-15.71,6.924-19.706,18.196c-2.901,8.182-0.465,13.818,0.99,17.186c0.582,1.347,0.891,2.088,0.987,2.864    c0.134,1.094-0.259,1.901-2.476,5.092c-1.97,2.834-4.422,6.362-5.677,11.2c-3.079,11.873-2.418,28.673,9.583,36.948    c5.792,3.994,10.942,5.29,15.185,5.29c2.769,0,5.153-0.551,7.077-1.266c14.227-5.277,19.373-24.873,22.779-37.841    c0.505-1.927,0.943-3.592,1.335-4.913l14.222-47.934C481.111,365.147,481.138,363.274,480.666,361.497z M447.176,409.152    c-0.481,1.624-0.979,3.519-1.505,5.523c-1.352,5.145-3.033,11.55-5.335,16.785c-2.857,6.499-4.958,7.34-5.046,7.372    c-0.189,0.074-1.463-0.027-3.941-1.735c-2.52-1.739-3.254-8.957-1.57-15.446c0.357-1.377,1.461-2.964,2.738-4.803    c2.788-4.012,7.002-10.073,5.905-18.965c-0.452-3.665-1.624-6.375-2.479-8.354c-0.281-0.65-0.666-1.539-0.71-1.758    c0-0.003,0.012-0.239,0.211-0.801c1.014-2.859,3.249-4.072,8.914-6.569c4.351-1.917,9.605-4.232,13.931-8.709L447.176,409.152z" fill="#e0fbfc"/>
	</g>
</g>
<g>
</g>
<g>
</g>
<g>
</g>
<g>
</g>
<g>
</g>
<g>
</g>
<g>
</g>
<g>
</g>
<g>
</g>
<g>
</g>
<g>
</g>
<g>
</g>
<g>
</g>
<g>
</g>
<g>
</g>
</svg>
