<svg viewBox="0 0 511.99931 511" width="512px" height="512px" xmlns="http://www.w3.org/2000/svg">
  <path fill="#e0fbfc" d="m488.65625 319.171875 14.648438-14.644531c9.21875-9.222656 9.21875-24.226563 0-33.449219-4.46875-4.464844-10.40625-6.925781-16.726563-6.925781-4.742187 0-9.273437 1.386718-13.125 3.96875l-3.085937-10.359375 15.855468-15.859375c9.222656-9.222656 9.222656-24.226563 0-33.445313-8.488281-8.492187-21.871094-9.144531-31.140625-2l-18.789062-63.078125c7.503906-7.226562 14.691406-14.257812 21.464843-21.03125 19.519532-19.523437 35.390626-40.183594 44.691407-58.183594 15.714843-30.421874 9.136719-46.683593.851562-54.96875-8.28125-8.285156-24.542969-14.859374-54.96875.855469-17.996093 9.296875-38.660156 25.167969-58.179687 44.691407-6.773438 6.773437-13.808594 13.957031-21.03125 21.460937l-63.082032-18.789063c7.144532-9.265624 6.492188-22.648437-1.996093-31.140624-9.222657-9.21875-24.226563-9.222657-33.445313 0l-15.859375 15.859374-10.363281-3.085937c2.582031-3.855469 3.96875-8.386719 3.96875-13.128906 0-6.316407-2.460938-12.257813-6.925781-16.722657-9.21875-9.2226558-24.226563-9.2226558-33.445313 0l-14.644531 14.644532-74.644531-22.234375c-2.660156-.789063-5.535156-.0625-7.492188 1.898437l-19.214844 19.214844c-3.226562 3.222656-2.800781 8.734375.878907 11.425781l188.335937 137.855469c-42.464844 47.878906-83.371094 95.816406-112.25 130.066406l-55.398437-21.308594c-2.785157-1.070312-5.9375-.402343-8.046875 1.707032l-22.773438 22.773437c-2.945312 2.949219-2.945312 7.726563 0 10.671875l113.863282 113.863282c2.90625 2.910156 7.765624 2.910156 10.675781 0l22.769531-22.769532c2.109375-2.109375 2.78125-5.265625 1.707031-8.050781l-21.304687-55.394531c34.25-28.878906 82.183594-69.785156 130.066406-112.253906l14.960938 20.445312c2.65625 3.628906 8.042968 4.097656 11.300781 1.003906 2.714843-2.578125 3.089843-6.902344.882812-9.917968l-15.816406-21.609376c25.039063-22.347656 49.765625-44.894531 72.199219-66.140624l71.113281 238.730468-9.808594 9.804688-97.738281-133.53125c-2.460938-3.363282-7.183594-4.09375-10.546875-1.632813-3.367187 2.464844-4.097656 7.1875-1.632813 10.550781l102.941407 140.636719c2.691406 3.679688 8.203125 4.105469 11.425781.878907l19.214844-19.214844c1.960937-1.957032 2.6875-4.835938 1.898437-7.492188zm-207.382812-282.222656c3.296874-3.296875 8.800781-3.296875 12.097656 0 3.335937 3.335937 3.335937 8.761719 0 12.097656l-3.539063 3.539063-18.644531-5.554688zm-62.625-17.078125c3.332031-3.335938 8.761718-3.335938 12.097656 0 3.335937 3.335937 3.335937 8.761718 0 12.097656l-2.328125 2.324219-18.640625-5.550781zm-109.773438 7.292968 9.808594-9.804687 238.730468 71.109375c-21.246093 22.4375-43.792968 47.164062-66.144531 72.203125zm3.828125 269.445313 45.957031 17.675781c-11.527344 13.726563-20.367187 24.347656-25.582031 30.632813l-34.34375-34.34375zm31.097656 59.03125c26.3125-31.746094 165.394531-198.59375 257.027344-290.226563 18.179687-18.183593 38.023437-33.472656 54.433594-41.949218 12.320312-6.367188 28.804687-12.15625 37.367187-3.59375s2.769532 25.046875-3.59375 37.367187c-8.476562 16.410157-23.769531 36.25-41.953125 54.433594-91.625 91.625-258.476562 230.710937-290.222656 257.027344zm72.089844 44.15625-13.964844 13.964844-34.34375-34.34375c6.28125-5.210938 16.90625-14.050781 30.632813-25.578125zm264.640625-118.042969c3.335938-3.335937 8.761719-3.335937 12.097656 0 3.335938 3.335938 3.335938 8.761719 0 12.097656l-8.871094 8.871094-5.554687-18.640625zm-17.078125-62.625c3.332031-3.335937 8.761719-3.332031 12.097656 0 3.296875 3.296875 3.296875 8.800782 0 12.097656l-10.085937 10.085938-5.554688-18.644531zm0 0"/>
  <path fill="#e0fbfc" d="m453.082031 435.203125-64.410156 64.410156c-2.746094 2.75-2.929687 7.289063-.402344 10.242188 2.824219 3.296875 8.007813 3.503906 11.078125.433593l64.410156-64.410156c2.949219-2.949218 2.949219-7.726562 0-10.675781-2.945312-2.945313-7.726562-2.945313-10.675781 0zm0 0"/>
  <path fill="#e0fbfc" d="m431.550781 413.671875c2.949219-2.945313 2.949219-7.726563 0-10.671875-2.945312-2.949219-7.726562-2.949219-10.671875 0l-40.257812 40.253906c-2.746094 2.75-2.929688 7.289063-.402344 10.242188 2.824219 3.296875 8.007812 3.503906 11.078125.433594zm0 0"/>
  <path fill="#e0fbfc" d="m407.398438 373.417969c2.949218-2.949219 2.949218-7.730469 0-10.675781-2.949219-2.949219-7.726563-2.949219-10.675782 0l-28.179687 28.179687c-2.746094 2.746094-2.929688 7.289063-.398438 10.242187 2.820313 3.296876 8.003907 3.503907 11.074219.433594zm0 0"/>
  <path fill="#e0fbfc" d="m77.296875 52.765625c-2.949219-2.945313-7.730469-2.945313-10.675781 0l-64.410156 64.414063c-2.949219 2.945312-2.949219 7.726562 0 10.671874 2.90625 2.90625 7.765624 2.90625 10.675781 0l64.410156-64.410156c2.945313-2.949218 2.945313-7.726562 0-10.675781zm0 0"/>
  <path fill="#e0fbfc" d="m109.5 84.972656c-2.949219-2.949218-7.726562-2.949218-10.671875 0l-40.257813 40.257813c-2.75 2.746093-2.929687 7.285156-.402343 10.238281 2.824219 3.296875 8.003906 3.503906 11.074219.433594l40.257812-40.253906c2.949219-2.949219 2.949219-7.730469 0-10.675782zm0 0"/>
  <path fill="#e0fbfc" d="m110.902344 147.980469c2.910156 2.90625 7.765625 2.90625 10.675781 0l28.179687-28.179688c2.945313-2.949219 2.945313-7.726562 0-10.675781-2.949218-2.945312-7.726562-2.945312-10.675781 0l-28.179687 28.179688c-2.945313 2.949218-2.945313 7.726562 0 10.675781zm0 0"/>
</svg>
