<?xml version="1.0" encoding="iso-8859-1"?>
<!-- Generator: Adobe Illustrator 19.0.0, SVG Export Plug-In . SVG Version: 6.00 Build 0)  -->
<svg xmlns="http://www.w3.org/2000/svg" xmlns:xlink="http://www.w3.org/1999/xlink" version="1.1" id="Capa_1" x="0px" y="0px" viewBox="0 0 511.994 511.994" style="enable-background:new 0 0 511.994 511.994;" xml:space="preserve" width="512px" height="512px">
<g>
	<g>
		<path d="M361.943,103.866l-1.645-0.133c-5.488-0.439-10.322,3.673-10.759,9.179c-0.436,5.505,3.673,10.322,9.179,10.759    l1.607,0.13c0.275,0.021,0.548,0.033,0.819,0.033c5.157,0,9.533-3.963,9.958-9.193    C371.547,109.137,367.446,104.312,361.943,103.866z" fill="#e0fbfc"/>
	</g>
</g>
<g>
	<g>
		<path d="M511.684,143.862c-2.991-17.042-26.916-21.857-34.777-23.44c-22.945-4.619-46.279-8.521-69.355-11.599    c-5.48-0.724-10.505,3.116-11.234,8.59c-0.73,5.474,3.115,10.504,8.59,11.234c22.642,3.021,45.538,6.85,68.054,11.382    c14.777,2.974,18.358,6.563,18.974,7.334c-0.299,1.119-2.771,7.449-21.483,18.821c-3.71,2.255-7.58,4.167-11.322,6.018    c-6.923,3.422-14.082,6.961-20.65,12.765c-3.949,3.489-6.359,8.326-8.69,13.003c-3.932,7.891-5.879,10.7-8.98,10.737    c-0.926,0.013-1.557-0.051-1.964-0.116c-0.303-1.393-0.389-4.09-0.45-5.977c-0.241-7.501-0.644-20.054-12.585-26.878    c-11.644-6.652-38.493-0.084-46.309,7.231c-4.975,4.656-11.55,11.865-11.198,20.67c0.312,7.8,5.855,12.213,8.222,14.096    c0.162,0.13,0.319,0.251,0.463,0.369c0.534,0.66,1.036,1.239,1.49,1.76c0.401,0.462,0.931,1.07,1.171,1.406    c0.005,0.296-0.03,1.046-0.37,2.449c-0.515,1.082-2.984,4.986-9.381,12.278c-0.341,0.391-0.536,0.63-0.568,0.671    c-2.182,2.764-6.535,6.04-10.745,9.209c-5.839,4.395-11.354,8.546-14.567,13.626c-1.36,2.151-1.979,4.466-2.212,6.902    c-2.315-2.684-5.309-4.771-9.407-5.136c-7.391-0.667-11.974,2.187-14.518,4.692c-7.013,6.9-6.223,17.724-5.387,29.184    c0.583,7.991,1.382,18.933-1.919,22.24c-1.724,1.728-9.614,2.828-13.85,3.419c-9.27,1.294-18.855,2.631-24.067,9.947    c-9.682,13.588-1.401,21.402,1.321,23.969c0.206,0.194,0.455,0.43,0.659,0.632c-0.014,0.1-0.035,0.217-0.062,0.354    c-0.634,3.145-1.313,4.999-1.796,6.032c-3.232-1.471-9.129-6.283-12.856-9.325c-4.95-4.04-10.07-8.219-15.481-11.411    c-13.66-8.061-23.484-10.583-31.853-8.181c-10.13,2.907-14.818,11.94-19.352,20.673c-1.02,1.965-2.081,4.009-3.244,6.084    c-3.248-9.465-7.4-20.189-12.941-29.312c-10.239-16.853-22.992-24.598-37.912-23.031c-5.593,0.59-18.598,1.961-18.86,15.392    c-1.258,1.923-2.224,4.098-3.311,6.545c-1.837,4.137-3.92,8.828-7.443,12.154c-8.551,8.073-14.597,12.004-18.469,12.004    c-0.08,0-0.159-0.002-0.236-0.005c-2.795-0.119-6.507-2.751-11.032-7.822c-7.354-8.238-10.929-18.012-14.711-28.361    c-3.415-9.339-7.17-19.608-14.104-29.216c0.04-0.152,0.077-0.305,0.111-0.457c7.664-5.259,14.709-10.554,19.886-17.249    c7.829-10.126,9.764-21.787,5.752-34.66c-3.303-10.597-12.147-17.287-20.701-23.758c-7.357-5.567-14.305-10.824-15.848-17.223    c-0.821-3.399,1.45-8.265,3.854-13.415c2.599-5.567,5.543-11.877,5.934-19.021c0.35-6.411-1.642-12.041-3.243-16.563    c-0.55-1.553-1.328-3.75-1.583-5.046c0.097-0.058,0.208-0.122,0.335-0.191c0.012,0,0.024,0,0.037,0    c3.032,0,11.079,2.309,16.502,3.865c11.779,3.378,22.904,6.573,31.582,4.857c9.59-1.897,19.802-5.201,29.679-8.396    c5.026-1.625,9.773-3.162,14.201-4.435c7.821-2.249,14.32-4.586,20.606-6.847c10.813-3.888,20.151-7.246,33.455-9.099    c5.152-0.717,17.245-3.524,28.565-6.979c21.198-6.471,26.85-11.072,29.581-14.717c0.923-1.233,1.687-2.233,2.313-3.052    c1.991-2.605,2.99-3.912,3.741-5.757c0.969-2.38,1.966-7.081-2.245-11.81l-0.037-0.043c-0.088-0.193-0.311-0.752-0.555-1.87    c-1.441-6.609-6.148-10.779-9.929-14.13c-0.965-0.855-2.295-2.034-3.087-2.902c0.333-0.484,0.891-1.19,1.804-2.119    c1.281-1.301,1.756-1.792,9.51,1.644c2.039,0.903,4.147,1.837,6.407,2.605c6.218,2.114,23.257,11.93,28.939,16.67    c4.373,3.65,4.369,4.531,4.354,7.809c-0.014,3.186-0.035,8.001,2.798,13.657c0.421,0.841,0.803,1.613,1.155,2.322    c2.516,5.078,4.034,8.143,7.164,10.551c4.077,3.137,8.283,3.055,12.348,2.975c3.244-0.063,7.681-0.15,15.266,0.775    c5.475,0.667,10.469-3.234,11.137-8.717s-3.235-10.469-8.717-11.137c-8.984-1.095-14.671-0.983-18.073-0.918    c-0.381-0.748-0.804-1.602-1.204-2.409c-0.362-0.732-0.757-1.529-1.192-2.397c-0.661-1.321-0.692-2.217-0.681-4.613    c0.03-6.868-0.835-14.32-11.541-23.253c-6.972-5.818-26.066-17.105-35.316-20.25c-1.413-0.48-3.03-1.197-4.742-1.955    c-7.132-3.16-20.403-9.042-31.871,2.619c-5.533,5.628-8.127,11.181-7.928,16.975c0.283,8.241,6.018,13.323,10.206,17.035    c1.283,1.137,3.195,2.831,3.709,3.673c0.398,1.774,0.864,3.274,1.371,4.559c-0.277,0.363-0.569,0.752-0.881,1.167    c-5.295,4.445-35.124,12.791-45.127,14.183c-15.36,2.139-26.097,5.999-37.465,10.087c-5.984,2.152-12.173,4.377-19.366,6.446    c-4.744,1.364-9.643,2.948-14.829,4.626c-9.326,3.018-18.967,6.137-27.401,7.804c-3.929,0.783-14.917-2.374-22.188-4.461    c-12.608-3.617-22.565-6.473-29.813-3.112c-9.516,4.415-12.085,11.132-12.563,15.987c-0.518,5.253,1.2,10.11,2.717,14.394    c1.162,3.282,2.26,6.383,2.127,8.801c-0.179,3.281-2.077,7.348-4.087,11.654c-3.401,7.289-7.633,16.358-5.174,26.561    c3.219,13.349,13.849,21.39,23.226,28.485c6.316,4.778,12.279,9.29,13.673,13.759c4.107,13.179-2.915,19.413-22.518,32.625    c-1.612,1.086-3.24,2.184-4.871,3.302c-0.016,0.011-0.033,0.022-0.049,0.033c-2.179,1.495-3.664,3.782-4.161,6.346    c0,0.001,0,0.001,0,0.001c0,0.004-0.001,0.007-0.002,0.01c0,0.003-0.001,0.005-0.001,0.008c0,0.001,0,0.002-0.001,0.003    c-0.068,0.353-0.117,0.712-0.146,1.075c-0.026,0.328-0.036,0.656-0.03,0.982c0.047,2.657,1.152,5.201,3.093,7.055    c9.208,8.791,13.164,19.608,17.351,31.061c4.263,11.662,8.673,23.718,18.573,34.811c5.343,5.987,13.757,14.001,25.099,14.485    c12.482,0.524,23.363-8.066,33.29-17.437c6.442-6.082,9.782-13.602,11.992-18.58c0.587-1.322,1.388-3.125,1.76-3.699    c1.689-2.192,2.507-4.412,2.902-6.308c0.395-0.052,0.836-0.104,1.327-0.156c16.64-1.788,27.182,30.586,32.828,47.964    c1.105,3.402,2.15,6.616,3.125,9.296c1.167,3.213,3.894,5.606,7.231,6.346c0.72,0.159,1.445,0.237,2.166,0.237    c2.623,0,5.176-1.034,7.065-2.93c8.694-8.695,13.482-17.918,17.329-25.33c2.344-4.514,5.26-10.131,7.12-10.665    c0.636-0.182,4.429-0.747,16.174,6.183c4.104,2.421,8.626,6.112,12.998,9.681c10.423,8.506,21.196,17.303,32.513,13.255    c10.837-3.878,13.511-17.145,14.39-21.504c1.759-8.72-1.537-14.154-4.325-17.304c2.453-0.741,6.797-1.347,9.633-1.743    c8.8-1.228,18.773-2.62,25.241-9.098c9.757-9.776,8.623-25.328,7.711-37.825c-0.096-1.317-0.205-2.815-0.296-4.341    c3.551,5.706,9.293,11.792,18.458,9.054c12.755-3.81,11.764-18.294,11.286-25.255c-0.081-1.191-0.193-2.827-0.203-3.929    c1.853-2.04,5.724-4.953,8.927-7.364c5.151-3.877,10.474-7.883,14.256-12.597l0.063-0.072    c11.968-13.641,13.148-18.258,13.652-20.23c2.998-11.729-0.833-17.404-5.014-22.213c-0.39-0.449-0.798-0.912-1.196-1.421    c-1.088-1.388-2.332-2.387-3.342-3.192c0.679-0.974,1.902-2.464,4.075-4.504c3.634-2.818,18.818-5.724,22.962-4.414    c1.648,1.06,2.115,3.155,2.337,10.045c0.158,4.941,0.338,10.541,3.081,15.551c2.481,4.535,7.811,9.9,19.126,9.9    c0.145,0,0.29-0.001,0.436-0.003c15.864-0.19,22.61-13.725,26.64-21.813c1.267-2.544,3.004-6.028,4.032-6.936    c4.574-4.042,9.995-6.721,16.27-9.823c4.126-2.04,8.394-4.149,12.847-6.856C504.119,169.125,513.92,156.6,511.684,143.862z" fill="#e0fbfc"/>
	</g>
</g>
<g>
	<g>
		<path d="M391.654,268.404c-4.596-3.065-10.804-1.824-13.867,2.773c-3.016,4.523-5.494,8.6-7.681,12.198    c-7.379,12.142-11.443,18.83-25.774,27.071c-4.789,2.753-6.438,8.866-3.685,13.652c1.85,3.217,5.216,5.018,8.679,5.018    c1.69,0,3.404-0.43,4.975-1.333c18.785-10.801,25.012-21.048,32.897-34.021c2.185-3.597,4.446-7.317,7.229-11.492    C397.491,277.676,396.25,271.467,391.654,268.404z" fill="#e0fbfc"/>
	</g>
</g>
<g>
	<g>
		<path d="M281.395,451.819c-18.566-5.284-31.689-15.962-52.006-42.318c-3.372-4.375-9.652-5.186-14.024-1.814    c-4.374,3.372-5.186,9.651-1.814,14.024c19.759,25.633,36.3,41.924,62.371,49.344c0.915,0.261,1.836,0.385,2.742,0.385    c4.356,0,8.361-2.868,9.613-7.267C289.787,458.862,286.706,453.331,281.395,451.819z" fill="#e0fbfc"/>
	</g>
</g>
<g>
	<g>
		<path d="M320.442,456.044h-0.105c-0.084-0.003-0.17-0.004-0.254-0.003c-5.502,0-9.975,4.448-9.999,9.957    c-0.023,5.522,4.434,10.019,9.957,10.043h0.101v-0.001c0.1,0.003,0.2,0.004,0.301,0.004c5.523,0,9.999-4.478,9.999-10    S325.964,456.044,320.442,456.044z" fill="#e0fbfc"/>
	</g>
</g>
<g>
	<g>
		<path d="M317.987,392.985c-1.242-4.265-4.15-14.253-12.876-16.498c-8.211-2.112-14.066,3.723-19.23,8.871    c-4.213,4.199-8.987,8.96-14.488,10.113c-4.632,0.971-7.948,5.055-7.948,9.787c0,13.656,5.624,24.061,15.431,28.548    c3.263,1.493,6.798,2.221,10.384,2.221c6.723,0,13.626-2.557,19.247-7.413C318.439,420.031,321.984,406.712,317.987,392.985z     M295.433,413.478c-2.591,2.238-6.055,3.139-8.237,2.141c-1.216-0.555-2.178-1.862-2.824-3.742    c6.219-3.184,11.006-7.761,14.844-11.578C300.726,407.559,297.565,411.636,295.433,413.478z" fill="#e0fbfc"/>
	</g>
</g>
<g>
	<g>
		<path d="M390.571,449.152c-5.334-20.676-16.754-27.066-29.978-34.465c-1.999-1.118-4.066-2.274-6.228-3.539    c-4.767-2.789-10.893-1.184-13.68,3.583c-2.788,4.768-1.185,10.893,3.583,13.68c2.328,1.361,4.479,2.565,6.559,3.729    c12.151,6.799,17.181,9.613,20.379,22.007c1.163,4.511,5.224,7.504,9.676,7.504c0.826,0,1.668-0.102,2.505-0.319    C388.734,459.952,391.951,454.5,390.571,449.152z" fill="#e0fbfc"/>
	</g>
</g>
<g>
	<g>
		<path d="M159.297,56.183c-1.34-5.359-6.772-8.619-12.127-7.275c-0.381,0.094-1.072,0.239-2.014,0.44    c-34.868,7.456-53.586,17.01-58.905,30.071c-2.716,6.668-1.78,13.996,2.634,20.638c1.926,2.898,5.101,4.466,8.337,4.466    c1.901,0,3.824-0.541,5.527-1.673c4.6-3.056,5.851-9.263,2.793-13.862c-0.369-0.554-0.958-1.555-0.768-2.024    c0.389-0.956,4.949-9.587,44.565-18.058c1.256-0.269,2.176-0.469,2.683-0.596C157.38,66.97,160.637,61.541,159.297,56.183z" fill="#e0fbfc"/>
	</g>
</g>
<g>
	<g>
		<path d="M344.29,373.896c-1.86-1.861-4.44-2.931-7.07-2.931s-5.21,1.071-7.07,2.931c-1.86,1.859-2.93,4.439-2.93,7.069    c0,2.63,1.071,5.21,2.93,7.07c1.86,1.861,4.44,2.93,7.07,2.93c2.629,0,5.21-1.07,7.07-2.93c1.87-1.86,2.93-4.44,2.93-7.07    C347.22,378.335,346.16,375.755,344.29,373.896z" fill="#e0fbfc"/>
	</g>
</g>
<g>
</g>
<g>
</g>
<g>
</g>
<g>
</g>
<g>
</g>
<g>
</g>
<g>
</g>
<g>
</g>
<g>
</g>
<g>
</g>
<g>
</g>
<g>
</g>
<g>
</g>
<g>
</g>
<g>
</g>
</svg>
