<?xml version="1.0" encoding="iso-8859-1"?>
<!-- Generator: Adobe Illustrator 19.0.0, SVG Export Plug-In . SVG Version: 6.00 Build 0)  -->
<svg xmlns="http://www.w3.org/2000/svg" xmlns:xlink="http://www.w3.org/1999/xlink" version="1.1" id="Capa_1" x="0px" y="0px" viewBox="0 0 511.998 511.998" style="enable-background:new 0 0 511.998 511.998;" xml:space="preserve" width="512px" height="512px">
<g>
	<g>
		<path d="M508.143,325.513c-4.979-6.495-13.072-7.741-18.982-8.651c-1.48-0.229-3.013-0.464-3.882-0.706    c-7.281-2.021-12.56-5.688-15.266-10.607c-2.442-4.435-2.727-9.829-0.851-16.029c0.606-2.004,1.657-4.307,2.768-6.746    c3.301-7.238,7.406-16.246,3.29-25.846c-3.496-8.15-10.631-15.475-16.924-21.938c-0.066-0.068-0.133-0.136-0.199-0.204    c0.194-0.162,0.389-0.325,0.582-0.486c5.608-4.688,11.406-9.536,17.218-13.887c0.564-0.423,1.573-1.047,2.547-1.652    c2.194-1.359,4.679-2.9,6.66-4.841c6.411-6.281,9.124-15.622,6.752-23.245c-2.118-6.809-7.795-11.488-15.577-12.838    c-2.173-0.378-4.709-0.592-7.646-0.842c-3.269-0.277-10.206-0.865-13.707-1.968c0.925-3.599,2.566-10.695-3.296-17.41    c-2.977-3.411-6.53-4.456-9.096-4.847c-0.112-1.255-0.294-2.843-0.739-4.704c-2.819-11.797-9.926-20.908-16.196-28.948    c-1.232-1.58-2.464-3.158-3.661-4.756c-1.842-2.455-4.028-4.929-6.344-7.548c-3.886-4.396-8.723-9.868-9.943-13.521    c-0.95-2.847-0.428-7.29,0.126-11.995c0.715-6.061,1.524-12.93-0.413-19.774c-3.348-11.827-13.626-19.746-25.603-19.746    c-0.048,0-0.097,0-0.145,0c-16.384,0.087-22.756,12.814-26.97,21.233c-5.579,11.14-11.068,22.519-16.376,33.523    c-2.681,5.559-5.363,11.118-8.065,16.666c-1.163,2.39-2.37,5.415-3.77,8.918c-2.34,5.861-5.252,13.154-8.6,18.844    c-4.082,6.94-6.475,7.551-6.458,7.553c-1.535-0.033-2.262-0.315-2.383-0.399c-1.422-1.484-1.19-9.754-1.091-13.285    c0.203-7.205,0.412-14.654-2.936-20.681c-6.363-11.459-22.721-15.109-34.664-17.774c-2.023-0.451-3.934-0.878-5.384-1.261    c-4.622-1.22-7.958-2.102-11.806-1.11c-4.904,1.265-7.307,4.715-9.426,7.758c-0.461,0.663-0.994,1.429-1.637,2.308l-22.538,30.842    c-2.882,3.943-5.602,8.198-8.481,12.703c-7.375,11.537-14.999,23.465-24.444,28.413c-1.028,0.539-1.982,1.03-2.866,1.487    c-13.05,6.738-16.347,10.016-18.769,26.785l-0.197,1.347c-1.341,9.079-3.368,22.801,4.964,31.246    c3.165,3.208,9.027,6.753,18.959,5.423c2.779-0.372,5.056-1.354,6.884-2.302c0.661,1.488,1.639,3.132,3.177,4.668    c4.462,4.454,10.401,6.792,16.744,6.586c7.285-0.239,14.408-3.731,19.546-9.579c6.251-7.117,11.702-19.877,10.022-30.492    c-0.853-5.392-2.685-8.707-3.898-10.9c-0.099-0.179-0.214-0.388-0.319-0.58c0.043-0.145,0.102-0.324,0.179-0.539    c2.96-8.244,11.128-18.305,14.506-19.075c2.23,1.294,4.94,8.551,6.419,12.507c1.544,4.131,3.139,8.402,5.358,11.966    c0.099,0.16,0.342,0.632,0.519,0.976c0.785,1.529,2.314,4.502,5.017,6.791c-1.863,0.847-3.801,1.843-5.635,3.157    c-8.677,6.217-15.502,14.788-18.721,23.515c-1.206,3.267-1.736,6.357-2.204,9.083c-0.46,2.686-0.858,5.006-1.797,6.785    c-2.055,3.896-4.832,6.69-8.74,8.793c-1.564,0.842-3.346,1.581-5.294,2.196c-5.279,1.666-8.207,7.296-6.541,12.575    c1.666,5.278,7.298,8.204,12.575,6.541c3.145-0.992,6.093-2.224,8.761-3.66c7.372-3.966,13.082-9.719,16.971-17.095    c2.425-4.599,3.2-9.116,3.823-12.746c0.368-2.144,0.687-3.996,1.253-5.532c1.812-4.91,6.253-10.336,11.59-14.16    c0.919-0.659,2.704-1.414,4.431-2.146c5.535-2.343,15.836-6.706,16.134-18.818c0.104-4.164-4.993-16.53-9.335-19.75    c-2.322-1.722-5.23-2.386-8.005-1.867c-0.461-1.166-0.922-2.401-1.378-3.62c-3.314-8.87-7.438-19.91-17.833-24.156    c-5.028-2.054-10.526-1.876-15.897,0.516c-13.514,6.021-22.69,24.464-24.84,30.449c-3.002,8.362-0.818,13.466,1.464,17.594    c0.835,1.51,1.339,2.421,1.642,4.332c0.558,3.535-2.009,10.402-5.283,14.13c-1.431,1.629-3.451,2.717-5.143,2.773    c-0.512,0.014-0.888-0.068-1.194-0.208c-0.726-2.493-2.428-8.047-8.775-11.043c-7.844-3.702-14.316-0.097-17.426,1.636    c-0.543,0.303-1.27,0.707-1.63,0.856c-0.903,0.108-1.503,0.098-1.867,0.064c-0.989-2.849,0.234-11.132,0.653-13.963l0.206-1.41    c0.255-1.765,1.031-7.136,1.68-8.149c0.58-0.663,3.697-2.271,6.446-3.691c0.916-0.473,1.904-0.983,2.97-1.542    c14.165-7.419,23.658-22.271,32.033-35.374c2.706-4.235,5.262-8.234,7.776-11.673l22.538-30.842    c0.399-0.545,0.762-1.053,1.095-1.526c0.159,0.042,0.318,0.083,0.47,0.124c1.825,0.482,3.921,0.949,6.139,1.444    c4.826,1.076,19.512,4.353,21.477,7.888c0.7,1.547,0.543,7.112,0.449,10.437c-0.253,8.968-0.565,20.128,6.605,27.666    c4.039,4.245,9.581,6.473,16.472,6.622c0.153,0.004,0.304,0.005,0.456,0.005c18.077-0.003,27.441-23.45,33.654-39.01    c1.2-3.007,2.333-5.846,3.176-7.576c2.711-5.57,5.404-11.152,8.096-16.733c5.277-10.938,10.733-22.25,16.246-33.258    c4.222-8.435,5.761-10.143,9.152-10.161c0.012,0,0.022,0,0.034,0c2.953,0,5.431,2.022,6.319,5.158    c0.85,3.003,0.337,7.358-0.206,11.97c-0.751,6.373-1.601,13.596,0.769,20.691c2.513,7.521,8.581,14.388,13.936,20.446    c2.041,2.309,3.968,4.489,5.326,6.302c1.274,1.697,2.582,3.377,3.892,5.056c5.503,7.054,10.7,13.717,12.508,21.281    c0.179,0.753,0.242,1.488,0.32,2.419c0.266,3.181,0.712,8.506,6.457,13.644c1.974,1.766,4.108,2.668,5.964,3.149    c-0.821,3.657-1.48,9.536,2.988,15.241c6.153,7.859,18.771,8.93,28.909,9.79c2.131,0.18,4.156,0.353,5.495,0.551    c-0.248,0.644-0.689,1.423-1.34,2.062c-0.498,0.458-2.195,1.51-3.21,2.139c-1.342,0.832-2.729,1.693-3.999,2.643    c-6.243,4.675-12.251,9.697-18.062,14.555c-2.822,2.359-5.741,4.799-8.606,7.13c-2.077,1.689-3.391,4.138-3.65,6.801    c-0.261,2.663,0.555,5.319,2.264,7.378c2.402,2.892,5.172,5.737,8.107,8.749c5.077,5.213,10.832,11.122,12.861,15.852    c0.622,1.45-1.712,6.57-3.106,9.628c-1.337,2.933-2.72,5.965-3.716,9.254c-3.449,11.398-2.594,22.292,2.475,31.502    c5.292,9.616,15.047,16.811,27.467,20.258c0.976,0.272,1.981,0.488,2.991,0.676c-3.196,0.322-6.627,0.465-9.999,0.606    c-3.558,0.149-7.237,0.303-10.687,0.673c-3.473,0.372-7.04,0.944-10.489,1.498c-6.413,1.029-13.045,2.096-18.53,1.753    c-4.489-0.278-10.591-2.802-16.491-5.242c-10.491-4.339-22.382-9.257-33.928-5.619c-5.097,1.607-8.934,3.695-12.017,5.372    c-5.819,3.168-6.567,3.577-12.805-0.216c-4.56-2.773-11.464-6.164-18.752-3.62c-8.019,2.801-10.842,10.481-13.572,17.908    c-0.304,0.829-0.618,1.684-0.949,2.56c-0.628,1.664-1.465,3.57-2.35,5.589c-4.086,9.315-9.683,22.073-4.214,34.116    c0.953,2.1,1.994,3.818,2.869,5.225c-2.863,2.057-8.225,3.091-13.421,4.092c-3.818,0.736-7.765,1.497-11.441,2.777    c-2.802,0.975-11.328,3.945-13.637,12.141c-2.266,8.045,2.978,14.441,6.807,19.112c1.479,1.804,3.154,3.849,3.758,5.187    c0.892,2.133-0.687,7.875-2.52,9.835c-3.338-2.318-7.143-8.702-10.21-13.845c-1.759-2.951-3.421-5.737-5.19-8.227    c-0.926-1.303-2.006-2.596-3.05-3.846c-1.13-1.353-3.01-3.604-3.427-4.531c-0.111-0.631-0.004-2.328,0.067-3.464    c0.153-2.422,0.343-5.437-0.275-8.581c-2.551-12.998-33.207-45.34-52.079-48.295c-7.639-1.198-14.272,1.862-17.757,8.176    c-2.837,5.139-1.995,11.667,3.696,27.867c-0.247-0.235-0.458-0.433-0.646-0.602c-2.302-2.092-3.909-5.588-5.608-9.288    c-2.224-4.841-4.745-10.33-9.761-13.918c-6.181-4.424-13.955-4.586-23.1-0.477c-1.032,0.463-1.999,0.912-2.914,1.338    c-5.85,2.718-6.904,3.209-11.394,1.974c-13.304-3.664-22.752-4.921-32.481,10.389c-1.946,3.061-2.011,3.086-5.401,4.369    c-1.858,0.703-4.402,1.666-7.574,3.264c-7.305,3.679-12.383,9.138-16.862,13.954l-0.966,1.036    c-1.883,2.018-3.711,4.248-5.646,6.609c-4.806,5.868-11.376,13.886-16.383,13.886c-0.037,0-0.075,0-0.111-0.001    c-2.543-0.062-5.011-0.449-7.622-0.86c-3.963-0.622-8.454-1.327-13.787-0.984c-1.811,0.118-2.806,0.061-3.286,0.006    c-0.36-0.425-0.893-1.133-1.343-1.73c-1.162-1.541-2.606-3.457-4.694-5.712c-2.932-3.168-6.112-5.463-8.668-7.305    c-1.349-0.973-3.329-2.402-4-3.182c0.036-0.309,0.156-0.944,0.554-1.992c3.255-8.551,8.287-17.415,13.153-25.987    c1.855-3.268,3.773-6.645,5.563-9.957c2.821-5.216,4.798-6.607,5.726-6.972c1.495-0.586,4.333-0.018,7.988,1.609    c7.142,3.175,14.382,6.668,21.383,10.047c3.614,1.744,7.23,3.488,10.853,5.202c2.418,1.143,5.19,1.274,7.703,0.362    c2.514-0.911,4.559-2.789,5.68-5.215c1.066-2.304,2.44-4.833,3.894-7.51c3.304-6.085,7.051-12.981,8.629-20.12    c0.732-3.316,0.557-6.255,0.416-8.617c-0.092-1.547-0.172-2.882,0.054-3.638c1.105-3.701,4.961-6.68,9.426-10.13l1.452-1.126    c7.442-5.808,18.764-14.343,31.099-21.371c4.809-2.74,6.486-8.862,3.746-13.671c-2.74-4.81-8.859-6.487-13.672-3.747    c-13.465,7.673-25.572,16.792-33.507,22.984l-1.376,1.066c-5.982,4.622-13.427,10.374-16.379,20.258    c-1.239,4.152-1.017,7.861-0.856,10.569c0.075,1.235,0.15,2.511,0.021,3.096c-0.944,4.277-3.734,9.468-6.475,14.517    c-0.666-0.321-1.332-0.643-1.998-0.964c-7.141-3.445-14.523-7.007-21.949-10.31c-17.275-7.684-30.196-3.056-39.494,14.147    c-1.692,3.128-3.474,6.268-5.361,9.593c-5.239,9.227-10.656,18.769-14.456,28.754c-6.276,16.495,4.61,24.345,10.457,28.563    c2.113,1.524,4.111,2.965,5.683,4.664c1.4,1.511,2.415,2.858,3.396,4.16c4.511,5.987,8.99,10.495,21.929,9.664    c3.12-0.205,6.023,0.255,9.384,0.783c2.993,0.47,6.385,1.003,10.248,1.097c14.815,0.356,25.027-12.114,32.487-21.22    c1.721-2.103,3.348-4.088,4.788-5.63l0.994-1.068c3.814-4.1,7.107-7.643,11.202-9.704c2.233-1.125,3.97-1.782,5.65-2.418    c5.859-2.217,10.083-4.275,15.226-12.367c1.418-2.231,2.246-3.158,2.617-3.514c1.598,0.042,5.764,1.19,7.621,1.701    c11.586,3.19,18.182,0.124,25.167-3.122c0.842-0.392,1.729-0.804,2.679-1.231c1.825-0.82,2.94-1.088,3.504-1.173    c0.844,1.117,2.075,3.797,2.926,5.648c2.233,4.863,5.014,10.915,10.344,15.758c0.476,0.432,1.908,1.847,3.427,3.346    c3.807,3.759,9.56,9.439,14.825,14.156c8.124,7.276,13.95,11.882,20.765,9.698c2.649-0.849,4.861-2.78,6.068-5.297    c2.303-4.801,1.263-7.517-5.507-25.187c-2.39-6.234-6.573-17.155-8.934-24.758c3.349,1.972,8.053,5.368,14.021,10.992    c9.446,8.9,15.018,16.793,15.958,19.121c0.072,0.715-0.02,2.174-0.089,3.267c-0.198,3.145-0.445,7.058,0.942,11.135    c1.457,4.287,4.422,7.837,7.038,10.969c0.834,0.998,1.621,1.941,2.094,2.606c1.303,1.834,2.765,4.286,4.313,6.882    c4.368,7.326,9.319,15.628,16.493,20.384c3.55,2.353,7.385,3.521,11.159,3.521c4.375-0.001,8.666-1.571,12.33-4.68    c9.027-7.672,12.88-23.424,8.244-33.708c-1.697-3.762-4.266-6.897-6.534-9.663c-0.052-0.064-0.105-0.129-0.159-0.195    c1.979-0.528,4.301-0.976,6.724-1.443c7.617-1.469,16.251-3.133,22.961-8.769c12.893-10.829,6.6-20.922,3.913-25.232    c-0.704-1.129-1.369-2.195-1.865-3.29c-1.768-3.895,1.608-11.591,4.32-17.774c0.95-2.166,1.931-4.405,2.746-6.561    c0.352-0.931,0.687-1.84,1.01-2.722c0.556-1.513,1.237-3.362,1.848-4.792c0.362,0.193,0.776,0.429,1.247,0.716    c16.098,9.788,25.36,4.745,32.803,0.695c2.681-1.459,5.214-2.838,8.46-3.861c4.597-1.45,12.907,1.991,20.24,5.024    c7.418,3.068,15.088,6.241,22.912,6.727c7.709,0.477,15.456-0.766,22.949-1.969c3.341-0.536,6.497-1.043,9.447-1.359    c2.802-0.3,6.002-0.434,9.389-0.575c7.653-0.32,16.326-0.683,23.88-3.227c6.932-2.336,11.918-6.991,13.68-12.772    C512.876,335.644,511.752,330.221,508.143,325.513z" fill="#e0fbfc"/>
	</g>
</g>
<g>
	<g>
		<path d="M199.932,278.646c-0.419-5.518-5.262-9.655-10.796-9.231l-0.146,0.011c-5.521,0.419-9.613,5.231-9.193,10.751    c0.399,5.261,4.83,9.261,10.025,9.261c0.255,0,0.512-0.009,0.771-0.03l0.146-0.011    C196.259,288.978,200.352,284.166,199.932,278.646z" fill="#e0fbfc"/>
	</g>
</g>
<g>
	<g>
		<path d="M145.852,255.704c-0.933-5.178-2.589-10.3-4.191-15.253c-2.092-6.472-4.067-12.584-4.172-17.81    c-0.029-1.421,0.834-4.577,1.526-7.112c2.239-8.199,5.623-20.589-3.775-29.567c-8.118-7.758-23.301-9.039-33.465-6.304    c-8.455,2.274-14.217,7.337-16.227,14.256c-2.162,7.44-0.879,14.41,0.253,20.56c0.896,4.866,1.669,9.068,0.631,12.49    c-1.911,6.302-4.84,12.623-7.941,19.317c-1.564,3.375-3.179,6.863-4.653,10.35c-0.187,0.442-0.671,1.436-1.138,2.397    c-5.496,11.296-10.392,23.071-4.808,31.997c1.671,2.67,5.72,7.15,14.077,7.15c2.345,0,4.868,0.053,7.539,0.109    c2.905,0.062,5.927,0.125,9.003,0.125c15.224,0,31.717-1.567,41.271-12.752C146.067,278.296,148.109,268.218,145.852,255.704z     M124.537,272.636c-5.313,6.222-22.243,5.865-34.605,5.603c-1.251-0.026-2.471-0.051-3.667-0.072    c0.83-2.502,2.32-5.969,4.464-10.372c0.661-1.36,1.183-2.434,1.577-3.365c1.339-3.171,2.813-6.354,4.375-9.724    c3.253-7.022,6.617-14.285,8.935-21.927c2.45-8.08,1.036-15.762-0.1-21.935c-0.795-4.32-1.485-8.079-0.826-10.919    c2.816-2.261,13.765-1.981,16.678,0.508c0.555,1.591-0.902,6.927-1.69,9.813c-1.14,4.17-2.317,8.481-2.231,12.793    c0.162,8.181,2.693,16.007,5.14,23.577c1.461,4.521,2.843,8.792,3.537,12.644C127.26,265.571,126.727,270.072,124.537,272.636z" fill="#e0fbfc"/>
	</g>
</g>
<g>
</g>
<g>
</g>
<g>
</g>
<g>
</g>
<g>
</g>
<g>
</g>
<g>
</g>
<g>
</g>
<g>
</g>
<g>
</g>
<g>
</g>
<g>
</g>
<g>
</g>
<g>
</g>
<g>
</g>
</svg>
