<?xml version="1.0" encoding="iso-8859-1"?>
<!-- Generator: Adobe Illustrator 19.0.0, SVG Export Plug-In . SVG Version: 6.00 Build 0)  -->
<svg xmlns="http://www.w3.org/2000/svg" xmlns:xlink="http://www.w3.org/1999/xlink" version="1.1" id="Capa_1" x="0px" y="0px" viewBox="0 0 511.999 511.999" style="enable-background:new 0 0 511.999 511.999;" xml:space="preserve" width="512px" height="512px">
<g>
	<g>
		<path d="M446.401,258.882c-5.182-1.902-10.95,0.817-12.855,5.999c-0.002,0.006-0.004,0.012-0.007,0.019    c-1.895,5.186,0.748,10.988,5.932,12.886c1.121,0.41,2.269,0.604,3.399,0.604c4.086,0,7.94-2.539,9.438-6.583    c0.004-0.011,0.008-0.022,0.012-0.033C454.221,266.591,451.584,260.785,446.401,258.882z" fill="#5C6B73"/>
	</g>
</g>
<g>
	<g>
		<path d="M456.423,151.559c-7.436-25.305-19.869-48.462-36.957-68.825c-58.13-69.276-155.349-86.852-232.744-47.576    c-0.131-0.286-0.273-0.57-0.434-0.848L169.366,5.002c-2.762-4.783-8.877-6.422-13.66-3.66c-4.783,2.761-6.422,8.877-3.66,13.66    l0.348,0.602C124.616,33.18,101.538,56.04,83.734,83.701c-2.989,4.645-1.647,10.832,2.997,13.821    c1.674,1.078,3.549,1.592,5.403,1.592c3.287,0,6.507-1.619,8.418-4.589c16.062-24.958,36.85-45.629,61.849-61.586l6.565,11.371    c0.157,0.272,0.339,0.518,0.517,0.77c-6.572,4.254-12.955,8.952-19.103,14.111C69.703,126.888,59.142,247.6,126.838,328.278    c37.729,44.963,91.914,68.145,146.468,68.145c29.763,0,59.636-6.904,87-20.937c0.177,0.445,0.376,0.885,0.623,1.311l6.571,11.381    c-29.107,15.098-60.833,22.877-92.967,23.042c-0.29-0.025-0.581-0.044-0.878-0.044c-0.247,0-0.49,0.019-0.733,0.037    c-17.649-0.049-35.409-2.379-52.911-7.069c-52.975-14.195-97.252-48.169-124.673-95.666    c-23.908-41.411-32.643-90.126-24.592-137.172c0.931-5.444-2.727-10.612-8.17-11.543c-5.443-0.932-10.612,2.728-11.543,8.17    c-8.834,51.638,0.75,105.102,26.986,150.546c30.093,52.123,78.682,89.407,136.817,104.984c16.154,4.328,32.507,6.83,48.82,7.55    v18.985h-53.123c-28.673,0-52.001,23.327-52.001,52.001c0,5.523,4.477,10,10,10h210.246c5.523,0,10-4.477,10-10    c0-28.674-23.327-52.001-52.001-52.001h-53.122V431c32.479-1.478,64.402-10.059,93.854-25.486l0.341,0.591    c1.852,3.208,5.213,5.001,8.669,5.001c1.696,0,3.416-0.432,4.991-1.341c4.783-2.761,6.422-8.877,3.66-13.66l-16.921-29.31    c-0.256-0.444-0.55-0.851-0.86-1.24c6.371-4.156,12.565-8.727,18.536-13.736c12.32-10.338,23.276-22.147,32.564-35.102    c3.218-4.488,2.188-10.735-2.3-13.954c-4.488-3.218-10.736-2.188-13.954,2.3c-8.313,11.594-18.125,22.17-29.166,31.434    c-53.346,44.763-126.238,51.299-185.124,22.563v-31.745l1.483-0.789c12.432-6.609,17.169-22.101,10.56-34.534l-3.542-6.661    c-0.555-1.043-0.759-2.214-0.591-3.384c1.039-7.245-1.085-14.597-5.828-20.172c-4.743-5.574-11.66-8.849-18.977-8.984    l-16.308-0.301l-35.248-18.151c-2.914-1.5-6.378-1.478-9.272,0.061l-14.113,7.503c-12.983-60.068,6.87-125.218,57.128-167.39    c21.668-18.182,46.563-30.051,72.433-35.819l-6.966,12.797l-35.551,19.966c-8.082,4.539-13.86,12.333-15.853,21.386l-2.815,12.789    c-2.427,11.021,0.932,22.323,8.984,30.231l16.871,16.567c0.957,0.94,2.078,1.652,3.281,2.135c-1.018,0.615-1.99,1.28-2.886,2.015    c-4.05,3.324-6.833,8.84-10.324,16.27c-0.997,2.121-2.027,4.313-2.702,5.439c-0.641,1.069-1.287,2.118-1.927,3.156    c-3.472,5.637-7.063,11.466-9.1,18.919c-4.515,16.518,0.077,33.997,11.985,45.615c11.547,11.266,27.963,15.135,43.918,10.348    c2.604-0.781,5.012-1.848,7.137-2.79c5.468-2.424,6.554-2.566,7.694-1.822c0.088,0.058,0.155,0.105,0.204,0.143    c0.131,0.436,0.288,1.362,0.407,2.062c0.338,1.994,0.801,4.724,2.098,7.686c2.137,4.88,5.926,7.813,8.693,9.954    c0.912,0.706,2.29,1.772,2.611,2.226c2.571,4.011,2.391,6.238,1.372,13.345l-0.261,1.836    c-1.628,11.733,5.312,21.861,10.887,29.999c1.778,2.594,3.457,5.044,4.625,7.187c10.407,19.075,16.701,22.906,21.485,24.139    c1.472,0.379,2.932,0.555,4.374,0.555c12.829,0,24.156-13.922,28.717-22.097c2.782-4.987,2.889-9.549,2.959-12.568    c0.023-1.013,0.05-2.162,0.193-2.548c0.361-0.978,0.885-1.829,1.61-3.007c1.599-2.599,3.789-6.158,4.56-11.924    c0.45-3.363,0.862-3.993,3.15-7.488c0.409-0.625,0.846-1.293,1.313-2.023c8.62-13.486,4.184-22.112-0.107-30.454    c-2.676-5.203-0.768-9.053,7.184-19.591c3.479-4.611,7.077-9.379,9.614-14.912c1.208-2.635,4.886-10.655,0.314-17.608    c-4.498-6.841-12.476-6.661-18.301-6.532c-1.72,0.04-4.585,0.103-5.554-0.179c-4.261-1.862-7.843-7.144-11.308-12.252    c-0.744-1.097-1.478-2.179-2.213-3.226c-1.245-1.773-2.593-4.006-4.021-6.37c-3.965-6.566-8.458-14.009-14.912-18.813    c-6.024-4.484-15.45-5.334-23.767-6.083c-2.619-0.236-5.092-0.458-6.671-0.745c-1.928-0.349-3.917-0.124-5.72,0.647    c-3.934,1.686-6.358,3.253-8.105,5.243c-0.595,0.678-1.143,1.476-1.593,2.368c-1.762-0.645-3.724-1.474-5.349-2.179    c-0.202-2.964-1.356-5.217-2.384-6.669c-6.567-9.273-21.412-5.914-24.32-5.145c-1.422,0.375-3.284,0.772-5.256,1.192    c-2.395,0.511-4.976,1.061-7.58,1.734c0.394-0.822,0.68-1.704,0.839-2.628l3.039-17.696l43.571-7.682l37.786,6.229l10.408,6.933    l0.699,3.966c0.28,1.587,0.939,3.083,1.922,4.36l25.089,32.618c1.954,2.541,4.916,3.904,7.933,3.904    c1.718,0,3.454-0.442,5.03-1.361l5.106-2.977c12.189-7.106,22.91-16.971,31.003-28.529c1.946-2.779,2.303-6.259,1.161-9.278    c0.107,0.042,0.208,0.101,0.299,0.176l10.771,8.878c0.104,0.085,0.189,0.187,0.256,0.302l6.145,10.651    c3.514,6.091,10.066,9.608,17.076,9.188c5.43-0.328,10.287-2.972,13.486-7.145c5.791,20.794,7.589,42.743,5.113,64.955    c-0.612,5.489,3.342,10.435,8.831,11.046c5.49,0.617,10.435-3.342,11.046-8.831C465.807,201.277,463.603,175.998,456.423,151.559z     M336.777,469.999c14.154,0,26.192,9.237,30.401,22H180.131c4.208-12.763,16.246-22,30.401-22H336.777z M124.989,254.516    l32.664,16.82c1.36,0.7,2.864,1.08,4.394,1.108l18.634,0.343c2.171,0.041,3.509,1.237,4.113,1.947    c0.604,0.71,1.572,2.223,1.263,4.373c-0.774,5.398,0.17,10.796,2.73,15.611l3.541,6.661c1.433,2.695,0.406,6.053-2.289,7.486    l-6.789,3.609c-3.265,1.736-5.306,5.132-5.306,8.83v26.253c-13.085-8.762-25.165-19.482-35.785-32.138    c-13.768-16.409-23.909-34.671-30.532-53.802L124.989,254.516z M228.113,167.444c2.127-0.454,4.141-0.883,5.969-1.357    c0.089,0.513,0.218,1.022,0.389,1.522c1.014,2.973,3.365,5.296,6.35,6.274c1.366,0.448,3.425,1.351,5.604,2.307    c6.633,2.91,14.154,6.209,20.955,5.452c6.739-0.75,9.839-5.267,11.006-6.968c0.053-0.077,0.104-0.153,0.156-0.228    c0.386-0.459,0.749-0.972,1.07-1.532c0.635,0.059,1.281,0.117,1.934,0.176c3.765,0.339,11.576,1.043,13.684,2.255    c3.284,2.485,6.674,8.101,9.668,13.06c1.54,2.551,3.133,5.188,4.775,7.526c0.674,0.96,1.347,1.953,2.028,2.958    c4.623,6.816,10.375,15.298,20.056,19.441c3.549,1.519,7.279,1.799,10.783,1.803c-1.459,2.25-3.208,4.568-5.018,6.966    c-7.524,9.972-17.83,23.628-9.004,40.787c3.466,6.739,3.466,6.739,1.04,10.536c-0.425,0.664-0.822,1.271-1.195,1.84    c-2.783,4.253-5.188,7.925-6.239,15.792c-0.208,1.554-0.633,2.246-1.77,4.093c-1.019,1.656-2.287,3.717-3.335,6.552    c-1.301,3.518-1.375,6.696-1.429,9.018c-0.049,2.101-0.105,2.707-0.431,3.291c-2.757,4.941-7.692,10.048-10.413,11.482    c-1.431-1.513-4.418-5.261-9.14-13.914c-1.654-3.032-3.703-6.021-5.684-8.912c-3.815-5.568-8.14-11.879-7.576-15.944l0.248-1.746    c1.166-8.123,2.371-16.521-4.33-26.977c-2.125-3.317-4.945-5.499-7.211-7.252c-0.91-0.704-2.268-1.755-2.657-2.265    c-0.283-0.701-0.448-1.679-0.655-2.9c-0.676-3.987-1.807-10.659-9.404-15.614c-10.546-6.878-20.672-2.392-26.722,0.289    c-1.74,0.771-3.383,1.499-4.782,1.919c-9.021,2.706-17.841,0.699-24.202-5.507c-6.707-6.544-9.259-16.516-6.659-26.025    c1.28-4.683,3.854-8.863,6.836-13.704c0.68-1.104,1.367-2.22,2.049-3.357c1.196-1.993,2.389-4.533,3.653-7.222    c1.316-2.801,3.747-7.974,5.031-9.409C216.085,170.007,223.596,168.406,228.113,167.444z M423.176,144.771l-4.578-7.936    c-1.267-2.195-2.901-4.126-4.858-5.74l-10.771-8.878c-4.772-3.934-11.004-5.573-17.093-4.5l-10.928,1.927    c-4.84,0.853-8.798,4.284-10.329,8.954c-1.495,4.56-0.426,9.539,2.785,13.078c-4.988,5.735-10.826,10.765-17.231,14.83    l-18.197-23.657l-1.016-5.764c-0.475-2.691-2.03-5.071-4.304-6.586l-15.761-10.5c-1.182-0.787-2.517-1.313-3.917-1.544    l-41.595-6.857c-1.114-0.185-2.251-0.178-3.363,0.019l-52.179,9.2c-4.156,0.733-7.405,3.996-8.12,8.156l-0.997,5.804l-3.242-3.184    c-3.105-3.049-4.401-7.408-3.465-11.659l2.815-12.789c0.769-3.492,2.997-6.498,6.114-8.249l38.061-21.375    c1.64-0.921,2.987-2.286,3.886-3.938l15.531-28.531c52.981-3.884,107.042,16.827,143.721,60.539    c9.775,11.65,17.826,24.299,24.089,37.66C427.043,135.846,425.355,139.691,423.176,144.771z" fill="#5C6B73"/>
	</g>
</g>
<g>
	<g>
		<path d="M76.098,118.397c-5.149-1.997-10.942,0.559-12.939,5.708l-0.302,0.783c-1.977,5.158,0.603,10.94,5.76,12.916    c1.177,0.451,2.386,0.664,3.576,0.664c4.022,0,7.815-2.445,9.34-6.425l0.273-0.707C83.803,126.187,81.247,120.394,76.098,118.397z    " fill="#5C6B73"/>
	</g>
</g>
<g>
</g>
<g>
</g>
<g>
</g>
<g>
</g>
<g>
</g>
<g>
</g>
<g>
</g>
<g>
</g>
<g>
</g>
<g>
</g>
<g>
</g>
<g>
</g>
<g>
</g>
<g>
</g>
<g>
</g>
</svg>
