<svg height="512pt" viewBox="-17 0 512 512.00042" width="512pt" xmlns="http://www.w3.org/2000/svg">
  <path fill="#e0fbfc" d="m437.5625 119.476562c1.953125 0 3.90625-.761718 5.375-2.269531l24.222656-24.886719c2.890625-2.96875 2.828125-7.71875-.140625-10.605468-2.96875-2.890625-7.71875-2.824219-10.605469.140625l-24.226562 24.886719c-4.628906 4.757812-1.21875 12.734374 5.375 12.734374zm0 0"/>
  <path fill="#e0fbfc" d="m442.9375 237.101562c-2.886719-2.964843-7.636719-3.03125-10.605469-.140624-2.96875 2.886718-3.03125 7.636718-.144531 10.605468l24.226562 24.882813c2.886719 2.96875 7.636719 3.035156 10.605469.144531s3.03125-7.636719.140625-10.605469zm0 0"/>
  <path fill="#e0fbfc" d="m470.167969 169.652344h-24.222657c-4.144531 0-7.5 3.359375-7.5 7.5 0 4.144531 3.355469 7.5 7.5 7.5h24.222657c4.144531 0 7.5-3.355469 7.5-7.5 0-4.140625-3.355469-7.5-7.5-7.5zm0 0"/>
  <path fill="#e0fbfc" d="m10.65625 81.714844c-2.96875 2.890625-3.03125 7.640625-.140625 10.605468l24.230469 24.886719c2.890625 2.96875 7.636718 3.03125 10.605468.140625s3.03125-7.636718.140626-10.605468l-24.230469-24.886719c-2.890625-2.964844-7.640625-3.03125-10.605469-.140625zm0 0"/>
  <path fill="#e0fbfc" d="m45.355469 236.960938c-2.96875-2.890626-7.71875-2.828126-10.605469.140624l-24.234375 24.886719c-2.890625 2.96875-2.828125 7.714844.140625 10.605469s7.71875 2.828125 10.605469-.140625l24.234375-24.886719c2.886718-2.964844 2.824218-7.714844-.140625-10.605468zm0 0"/>
  <path fill="#e0fbfc" d="m39.234375 177.15625c0-4.144531-3.355469-7.503906-7.5-7.503906h-24.234375c-4.144531 0-7.5 3.359375-7.5 7.503906 0 4.140625 3.355469 7.5 7.5 7.5h24.234375c4.144531 0 7.5-3.359375 7.5-7.5zm0 0"/>
  <path fill="#e0fbfc" d="m241.066406 15.015625c82.207032 1.117187 150.128906 63.605469 157.988282 145.355469.394531 4.125 4.050781 7.148437 8.183593 6.75 4.125-.398438 7.144531-4.0625 6.75-8.1875-8.527343-88.652344-82.640625-157.691406-172.71875-158.9140628-96.875-1.3867192-177.457031 75.3906248-178.402343 174.2421878-.457032 47.902343 18.011718 92.867187 52.003906 126.605469 28.148437 27.9375 34.867187 55.632812 47.222656 92.003906-6.203125 3.914062-10.335938 10.824218-10.335938 18.6875v6.679687c0 5.585938 2.085938 10.6875 5.515626 14.582031-3.429688 3.890626-5.515626 8.992188-5.515626 14.578126v6.683593c0 12.171875 9.902344 22.078125 22.078126 22.078125h13.617187v13.761719c0 12.175781 9.902344 22.078125 22.078125 22.078125h58.605469c12.175781 0 22.082031-9.902344 22.082031-22.078125v-13.761719h13.613281c12.175781 0 22.082031-9.90625 22.082031-22.078125v-6.683593c0-5.585938-2.089843-10.6875-5.519531-14.578126 3.429688-3.894531 5.519531-8.996093 5.519531-14.582031v-6.679687c0-7.863282-4.132812-14.773438-10.339843-18.6875 12.496093-36.789063 19.09375-63.984375 47.449219-92.234375 28.328124-28.214844 46.332031-65.5625 50.703124-105.160157.457032-4.117187-2.515624-7.820312-6.632812-8.277343-4.113281-.4375-7.820312 2.519531-8.277344 6.636719-3.996094 36.207031-20.464844 70.363281-46.378906 96.175781-30.972656 30.851562-38.328125 60.535156-51.550781 99.464843h-10.671875v-5.398437c0-11.09375-8.769532-20.152344-19.738282-20.667969.792969-41.574218 8.007813-71.761718 11.210938-83.210937h7.277344c12.175781 0 22.082031-9.90625 22.082031-22.078125v-6.683594c0-12.175781-9.90625-22.078125-22.082031-22.078125h-32.625c-4.140625 0-7.5 3.355469-7.5 7.5s3.359375 7.5 7.5 7.5h32.625c3.90625 0 7.082031 3.175781 7.082031 7.078125v6.683594c0 3.902344-3.175781 7.078125-7.082031 7.078125h-100.265625c-3.902344 0-7.078125-3.175781-7.078125-7.078125v-6.683594c0-3.902344 3.175781-7.078125 7.078125-7.078125h32.640625c4.144531 0 7.5-3.355469 7.5-7.5s-3.355469-7.5-7.5-7.5h-32.640625c-12.171875 0-22.078125 9.902344-22.078125 22.078125v6.683594c0 12.171875 9.90625 22.078125 22.078125 22.078125h7.28125c3.199219 11.453125 10.414062 41.640625 11.210937 83.210937-10.96875.515625-19.738281 9.574219-19.738281 20.667969v5.398437h-10.671875c-13.148438-38.714843-20.546875-68.691406-51.34375-99.257812-31.09375-30.859375-47.988281-71.992188-47.570312-115.8125.855468-89.367188 73.289062-160.566406 163.199218-159.390625zm34.152344 474.90625c0 3.902344-3.175781 7.078125-7.078125 7.078125h-58.609375c-3.902344 0-7.078125-3.175781-7.078125-7.078125v-13.761719h72.765625zm35.695312-35.839844c0 3.902344-3.175781 7.078125-7.082031 7.078125-4.414062 0-125.578125 0-129.996093 0-3.902344 0-7.078126-3.175781-7.078126-7.078125v-6.683593c0-3.902344 3.175782-7.078126 7.078126-7.078126h129.996093c3.90625 0 7.082031 3.175782 7.082031 7.078126zm-44.789062-173.882812c-3.773438 14.425781-9.9375 43.761719-10.652344 83.164062h-33.277344c-.714843-39.402343-6.878906-68.738281-10.648437-83.164062zm-63.671875 103.878906c0-3.152344 2.5625-5.714844 5.710937-5.714844h61.339844c3.152344 0 5.714844 2.5625 5.714844 5.714844v5.398437h-72.765625zm101.40625 20.402344c3.859375.023437 7.054687 3.152343 7.054687 7.078125v6.679687c0 3.902344-3.175781 7.082031-7.082031 7.082031h-129.996093c-3.902344 0-7.078126-3.179687-7.078126-7.082031v-6.679687c0-3.953125 3.226563-7.082032 7.078126-7.082032 1.890624 0 130.023437.003907 130.023437.003907zm0 0"/>
</svg>
