<?xml version="1.0" encoding="iso-8859-1"?>
<!-- Generator: Adobe Illustrator 19.0.0, SVG Export Plug-In . SVG Version: 6.00 Build 0)  -->
<svg version="1.1" id="Layer_1" xmlns="http://www.w3.org/2000/svg" xmlns:xlink="http://www.w3.org/1999/xlink" x="0px" y="0px"
	 viewBox="0 0 512 512" style="enable-background:new 0 0 512 512;" xml:space="preserve">
<g>
	<g>
		<path d="M355.481,366.199l-12.877-30.533c-3.223-7.644-10.668-12.583-18.964-12.583c-2.752,0-5.44,0.545-7.991,1.621
			l-68.68,28.968c-10.453,4.409-15.372,16.501-10.962,26.954l12.878,30.533c3.223,7.644,10.668,12.582,18.963,12.583h0.001
			c2.751,0,5.44-0.545,7.99-1.621l68.68-28.968C354.972,388.744,359.89,376.652,355.481,366.199z M338.665,379.275l-68.68,28.968
			c-0.687,0.29-1.405,0.437-2.136,0.437c-2.225,0-4.221-1.325-5.086-3.374l-12.878-30.533c-1.182-2.802,0.137-6.041,2.937-7.222
			l68.68-28.968c0.688-0.29,1.406-0.437,2.137-0.437c2.225,0,4.221,1.324,5.085,3.374l12.878,30.532
			C342.784,374.853,341.467,378.093,338.665,379.275z" fill="#5d6c74"/>
	</g>
</g>
<g>
	<g>
		<path d="M341.885,191.725c-9.068-6.535-20.998-10.134-33.591-10.134s-24.522,3.599-33.591,10.134
			c-9.813,7.072-15.218,16.712-15.218,27.143c0,10.431,5.404,20.072,15.218,27.144c9.068,6.535,20.998,10.134,33.591,10.134
			s24.522-3.599,33.591-10.134c9.813-7.072,15.218-16.712,15.218-27.144S351.698,198.797,341.885,191.725z M308.294,241.084
			c-18.292,0-33.746-10.173-33.746-22.216c-0.001-12.041,15.453-22.215,33.746-22.215c18.293,0,33.745,10.173,33.745,22.215
			S326.585,241.084,308.294,241.084z" fill="#5d6c74"/>
	</g>
</g>
<g>
	<g>
		<path d="M250.886,297.303l-22.468-50.579c-3.439-7.744-10.814-13.086-19.244-13.942c-7.934-0.805-16.134-2.325-24.111-2.325
			c-7.501,0-14.632,3.61-19.075,9.657l-12.924,17.593c-5.017,6.828-5.996,15.882-2.556,23.625l22.468,50.579
			c3.796,8.544,12.291,14.066,21.642,14.066c3.32,0,6.55-0.688,9.602-2.042l34.641-15.388c5.779-2.568,10.212-7.231,12.484-13.132
			C253.617,309.515,253.454,303.082,250.886,297.303z M237.287,310.005c-0.825,2.146-2.438,3.842-4.54,4.776l-34.641,15.388
			c-1.114,0.495-2.286,0.746-3.486,0.746c-3.404,0-6.496-2.009-7.878-5.119l-22.468-50.58c-1.25-2.816-0.895-6.107,0.93-8.592
			c0,0,12.918-17.586,12.923-17.593c1.777-2.42,4.821-3.773,7.808-3.468l21.718,2.204c3.067,0.311,5.748,2.254,6.999,5.071
			l22.468,50.579C238.054,305.518,238.114,307.858,237.287,310.005z" fill="#5d6c74"/>
	</g>
</g>
<g>
	<g>
		<circle cx="191.793" cy="269.253" r="9.376"/>
	</g>
</g>
<g>
	<g>
		<path d="M504.469,206.087c4.159,0,7.531-3.372,7.531-7.531v-32.577c0-28.224-22.962-51.186-51.186-51.186h-20.861
			c-3.415-6.55-10.259-11.04-18.143-11.04h-24.35c-7.884,0-14.728,4.49-18.143,11.04h-25.64V92.849
			c0-30.508-24.82-55.328-55.328-55.328H213.65c-30.508,0-55.328,24.82-55.328,55.328v21.945h-25.64
			c-3.415-6.55-10.259-11.04-18.143-11.04H90.19c-7.884,0-14.728,4.49-18.143,11.04H51.186C22.962,114.794,0,137.756,0,165.979
			v184.204c0,4.159,3.372,7.531,7.531,7.531s7.531-3.372,7.531-7.531V165.979c0-19.918,16.205-36.123,36.123-36.123h18.544v318.521
			H51.186c-19.918,0-36.123-16.204-36.123-36.122v-31.947c0-4.159-3.372-7.531-7.531-7.531S0,376.148,0,380.307v31.947
			c0,28.224,22.962,51.185,51.186,51.185h20.861c3.415,6.55,10.259,11.04,18.143,11.04h24.35c7.884,0,14.728-4.49,18.143-11.04
			h246.635c3.415,6.55,10.259,11.04,18.143,11.04h24.35c7.884,0,14.728-4.49,18.143-11.04h20.861
			c28.224,0,51.186-22.962,51.186-51.186V228.681c0-4.159-3.372-7.531-7.531-7.531s-7.531,3.372-7.531,7.531v183.574
			c0,19.918-16.205,36.123-36.123,36.123H442.27V129.856h18.545c19.918,0,36.123,16.205,36.123,36.123v32.577
			C496.938,202.715,500.31,206.087,504.469,206.087z M173.385,92.849c0-22.203,18.063-40.265,40.266-40.265h84.699
			c22.202,0,40.266,18.063,40.266,40.265v21.945h-25.104V92.849c0-8.361-6.801-15.162-15.162-15.162H213.65
			c-8.361,0-15.162,6.801-15.162,15.162v21.945h-25.104V92.849z M298.449,92.849v21.945h-84.898V92.849
			c0-0.048,0.051-0.099,0.099-0.099h84.699C298.397,92.749,298.449,92.802,298.449,92.849z M377,448.377H134.999V196.548
			c0-4.159-3.372-7.531-7.531-7.531c-4.159,0-7.531,3.372-7.531,7.531v257.472c0,2.976-2.422,5.397-5.397,5.397H90.19
			c-2.976,0-5.397-2.422-5.397-5.397V124.216c-0.001-2.977,2.421-5.398,5.397-5.398h24.35c2.976,0,5.397,2.422,5.397,5.397v42.209
			c0,3.148,2.089,6.078,5.058,7.115c4.802,1.677,10.004-2.037,10.004-7.115v-36.567H377V448.377z M427.207,454.018
			c0,2.976-2.422,5.397-5.397,5.397h-24.35c-2.976,0-5.397-2.421-5.397-5.397V124.215c-0.001-2.976,2.421-5.397,5.397-5.397h24.35
			c2.976,0,5.397,2.421,5.397,5.397V454.018z" fill="#5d6c74"/>
	</g>
</g>
</svg>
