<?xml version="1.0" encoding="iso-8859-1"?>
<!-- Generator: Adobe Illustrator 19.0.0, SVG Export Plug-In . SVG Version: 6.00 Build 0)  -->
<svg version="1.1" id="Layer_1" xmlns="http://www.w3.org/2000/svg" xmlns:xlink="http://www.w3.org/1999/xlink" x="0px" y="0px"
	 viewBox="0 0 511.999 511.999" style="enable-background:new 0 0 511.999 511.999;" xml:space="preserve">
<g>
	<g>
		<path d="M431.227,326.204c-32.299-32.299-71.945-54.578-115.168-65.29c45.736-22.325,77.319-69.31,77.319-123.535
			C393.378,61.628,331.75,0,255.999,0S118.621,61.628,118.621,137.379c0,54.227,31.583,101.21,77.319,123.535
			c-43.224,10.711-82.869,32.991-115.168,65.29C33.966,373.009,8.189,435.239,8.189,501.431c0,5.836,4.731,10.568,10.568,10.568
			h474.485c5.836,0,10.568-4.731,10.568-10.568C503.81,435.239,478.033,373.009,431.227,326.204z M139.756,137.378
			c0-64.097,52.147-116.244,116.244-116.244s116.244,52.147,116.244,116.244c0,64.097-52.147,116.244-116.244,116.244
			S139.756,201.474,139.756,137.378z M29.568,490.864c5.535-120.106,104.983-216.107,226.432-216.107
			s220.897,96.001,226.432,216.107H29.568z" fill="e0fbfc"/>
	</g>
</g>
<g>
	<g>
		<path d="M164.679,327.607c-2.994-5.012-9.482-6.646-14.491-3.653c-47.538,28.399-82.192,75.433-95.072,129.04
			c-1.363,5.676,2.131,11.38,7.806,12.745c0.83,0.2,1.66,0.295,2.478,0.295c4.772,0,9.102-3.257,10.264-8.101
			c11.562-48.112,42.674-90.332,85.362-115.834C166.036,339.106,167.671,332.617,164.679,327.607z" fill="e0fbfc"/>
	</g>
</g>
<g>
	<g>
		<path d="M255.999,294.835c-16.174,0-32.283,1.878-47.881,5.58c-5.678,1.348-9.189,7.043-7.841,12.722
			c1.153,4.858,5.488,8.13,10.273,8.13c0.807,0,1.628-0.094,2.448-0.288c14.002-3.324,28.469-5.008,43.001-5.008
			c5.836,0,10.568-4.731,10.568-10.568S261.836,294.835,255.999,294.835z" fill="e0fbfc"/>
	</g>
</g>
</svg>
